<svg xmlns="http://www.w3.org/2000/svg" viewBox="0 0 24 24" fill="currentColor">
  <path d="M14.826 4.958c.675 0 1.22.545 1.22 1.22v11.644c0 .675-.545 1.22-1.22 1.22H9.174c-.675 0-1.22-.545-1.22-1.22V6.178c0-.675.545-1.22 1.22-1.22h5.652zM24 6.178c0-.675-.545-1.22-1.22-1.22h-3.652c-.675 0-1.22.545-1.22 1.22v11.644c0 .675.545 1.22 1.22 1.22H22.78c.675 0 1.22-.545 1.22-1.22V6.178zM4.174 10.83c0-.675-.545-1.22-1.22-1.22H1.22C.545 9.61 0 10.155 0 10.83v7.992c0 .675.545 1.22 1.22 1.22h1.734c.675 0 1.22-.545 1.22-1.22V10.83z"/>
</svg>