<svg xmlns="http://www.w3.org/2000/svg" viewBox="0 0 24 24" fill="currentColor">
  <path d="M12 0C5.373 0 0 5.373 0 12s5.373 12 12 12 12-5.373 12-12S18.627 0 12 0zm5.568 8.16c-.169-.087-.369-.134-.568-.134-.198 0-.398.047-.568.134-.258.132-.438.385-.438.668v6.344c0 .283.18.536.438.668.17.087.37.134.568.134.199 0 .399-.047.568-.134.258-.132.438-.385.438-.668V8.828c0-.283-.18-.536-.438-.668zM8.16 8.16c-.169-.087-.369-.134-.568-.134-.198 0-.398.047-.568.134-.258.132-.438.385-.438.668v6.344c0 .283.18.536.438.668.17.087.37.134.568.134.199 0 .399-.047.568-.134.258-.132.438-.385.438-.668V8.828c0-.283-.18-.536-.438-.668z"/>
</svg>